<svg version="1.0" xmlns="http://www.w3.org/2000/svg" viewBox="0 0 512.000000 512.000000"
    preserveAspectRatio="xMidYMid meet">
    <defs>
        <linearGradient id="myGradient" x1="0%" y1="0%" x2="100%" y2="0%">
        <stop offset="0%" stop-color="#007BFF" />
        <stop offset="100%" stop-color="#00FF7F" />
        </linearGradient>
    </defs>

    <g transform="translate(0.000000,512.000000) scale(0.100000,-0.100000)" fill="url(#myGradient)" stroke="none">
    <path d="M3880 4746 c-123 -27 -226 -109 -283 -225 -30 -62 -32 -72 -32 -176
    0 -104 2 -114 32 -176 80 -162 257 -256 433 -228 226 35 380 247 342 471 -30
    173 -160 305 -332 338 -65 12 -90 12 -160 -4z M2470 4344 c-255 -22 -488 -102 -700 -242 -111 -74 -298 -261 -372
    -372 -164 -248 -241 -503 -241 -795 0 -386 147 -730 428 -1004 552 -537 1424
    -531 1969 15 237 236 374 531 408 877 30 306 -61 649 -243 913 -72 104 -214
    251 -317 329 -168 126 -400 225 -602 258 -103 17 -258 27 -330 21z m851 -452
    c161 -78 259 -264 229 -434 -50 -276 -335 -425 -586 -306 -66 30 -146 108
    -181 175 -121 228 -15 498 229 585 41 14 74 18 148 15 82 -3 104 -7 161 -35z
    m-1599 -1149 l3 -398 228 -3 227 -2 0 -50 0 -50 -290 0 -290 0 0 450 0 450 60
    0 60 0 2 -397z m1664 152 c55 -17 81 -36 110 -80 17 -26 20 -54 24 -265 l5
    -235 33 -3 c30 -3 32 -6 32 -41 0 -32 -4 -40 -22 -45 -68 -18 -121 2 -144 54
    l-16 37 -27 -25 c-14 -14 -51 -36 -81 -50 -66 -31 -176 -36 -225 -10 -33 18
    -77 62 -92 93 -35 70 -20 168 35 220 46 46 94 62 237 80 141 17 161 31 152
    100 -7 51 -42 81 -102 91 -105 15 -171 -14 -193 -84 -14 -42 -14 -42 -64 -42
    l-51 0 6 45 c12 84 50 129 134 160 51 18 188 19 249 0z m-986 -227 c0 -129 5
    -250 10 -270 15 -53 51 -78 114 -78 71 0 115 26 146 86 24 47 25 56 28 271 l3
    223 55 0 54 0 0 -330 0 -330 -50 0 -50 0 0 42 0 42 -37 -36 c-50 -49 -99 -68
    -175 -68 -80 0 -140 28 -176 83 l-27 40 -3 279 -3 278 55 0 56 0 0 -232z M3379 2560 c-9 -5 -60 -17 -113 -25 -118 -19 -138 -26 -165 -61 -33
    -41 -28 -89 13 -130 30 -30 40 -34 88 -34 69 0 155 41 181 87 25 43 21 177 -4
    163z M1177 793 c-4 -3 -7 -89 -7 -190 l0 -183 45 0 45 0 0 190 0 190 -38
    0 c-21 0 -42 -3 -45 -7z M2140 610 l0 -190 40 0 40 0 0 95 c0 86 2 95 21 106 16 8 28 8 45 0
    23 -10 24 -15 24 -106 l0 -95 43 0 42 0 -5 121 c-5 112 -7 122 -29 140 -27 22
    -66 24 -101 4 -14 -8 -28 -14 -32 -15 -5 0 -8 29 -8 65 l0 65 -40 0 -40 0 0
    -190z M2800 771 c-18 -17 -30 -40 -30 -55 0 -19 -5 -26 -20 -26 -15 0 -20
    -7 -20 -26 0 -17 6 -28 20 -31 18 -5 20 -14 20 -109 l0 -104 40 0 40 0 0 104
    0 104 38 4 c20 3 42 3 49 1 7 -3 12 -37 15 -88 4 -97 19 -122 81 -132 58 -9
    87 2 87 36 0 25 -3 28 -25 23 -42 -8 -55 13 -55 89 l0 68 38 3 c32 3 37 7 40
    31 3 26 1 27 -37 27 l-41 0 0 40 0 40 -45 0 -45 0 0 -40 0 -40 -50 0 c-37 0
    -50 4 -50 15 0 21 30 34 63 28 27 -5 28 -4 25 28 -3 33 -4 34 -56 37 -47 3
    -56 0 -82 -27z M4565 583 c-37 -120 -70 -224 -72 -230 -4 -9 6 -13 30 -13 33 0 36 3
    51 48 68 214 126 401 126 406 0 3 -15 6 -33 6 l-34 0 -68 -217z M407 783 c-4 -3 -7 -87 -7 -185 l0 -178 45 0 44 0 3 118 3 117 30
    -73 c30 -72 30 -73 64 -70 32 3 36 8 61 65 14 34 29 65 33 69 4 4 7 -45 7
    -109 l0 -117 45 0 45 0 -2 183 -3 182 -46 3 c-54 4 -55 3 -102 -103 l-36 -80
    -42 93 -43 92 -46 0 c-26 0 -50 -3 -53 -7z M1530 760 c0 -29 2 -30 45 -30 43 0 45 1 45 30 0 29 -2 30 -45 30
    -43 0 -45 -1 -45 -30z M1799 785 c0 -3 -1 -20 -2 -37 -1 -33 0 -33 51 -36 l52 -3 0 -145 0
    -144 50 0 50 0 0 145 0 145 50 0 50 0 0 40 0 40 -150 0 c-82 0 -150 -2 -151
    -5z M3395 778 c-3 -7 -31 -91 -63 -185 l-58 -173 46 0 c45 0 47 1 56 38
    l9 37 60 0 60 0 9 -37 c9 -37 10 -38 57 -38 l48 0 -62 183 -62 182 -48 3 c-32
    2 -49 -1 -52 -10z m73 -164 c16 -56 17 -54 -23 -54 -19 0 -35 1 -35 3 0 2 7
    27 16 56 17 58 25 57 42 -5z M1330 730 c0 -29 -4 -40 -15 -40 -10 0 -15 -10 -15 -30 0 -20 5 -30
    15 -30 12 0 15 -15 15 -75 0 -89 13 -120 53 -135 66 -22 117 -10 117 29 0 23
    -4 26 -37 26 l-38 0 -3 77 -3 77 38 3 c33 3 38 7 41 31 3 26 1 27 -37 27 l-41
    0 0 40 0 40 -45 0 -45 0 0 -40z M3980 730 c0 -29 -4 -40 -15 -40 -10 0 -15 -10 -15 -30 0 -20 5 -30
    15 -30 12 0 15 -15 15 -75 0 -89 13 -120 53 -135 66 -22 117 -10 117 29 0 23
    -4 26 -37 26 l-38 0 -3 77 -3 77 38 3 c33 3 38 7 41 31 3 26 1 27 -37 27 l-41
    0 0 40 0 40 -45 0 -45 0 0 -40z M147 667 c-143 -60 -147 -63 -145 -90 3 -27 13 -33 157 -93 85 -35
    156 -64 158 -64 2 0 3 14 1 31 -3 37 -4 37 -120 85 -49 20 -88 39 -88 43 0 3
    47 24 103 46 98 39 102 42 105 73 2 22 -1 32 -10 31 -7 0 -79 -28 -161 -62z M4810 698 c0 -33 1 -34 98 -72 53 -21 100 -42 104 -45 5 -4 -39 -26
    -97 -50 -104 -43 -105 -44 -105 -77 l0 -33 133 55 c72 31 142 60 155 65 15 6
    22 17 22 37 0 26 -7 31 -137 84 -76 32 -146 60 -155 64 -15 5 -18 0 -18 -28z M2517 684 c-96 -41 -102 -191 -11 -251 29 -19 125 -25 177 -10 23 6
    27 13 27 43 0 33 -2 36 -22 29 -54 -18 -119 -17 -139 1 -39 35 -25 44 71 44
    l90 0 0 45 c0 66 -39 106 -106 111 -31 3 -63 -2 -87 -12z m101 -56 c26 -26 13
    -38 -38 -38 -34 0 -50 4 -50 13 0 21 22 37 50 37 14 0 31 -5 38 -12z M4254 693 c-33 -6 -76 -58 -83 -100 -15 -87 19 -153 90 -174 134 -40
    233 98 161 223 -27 47 -91 66 -168 51z m96 -82 c15 -30 12 -97 -6 -115 -54
    -54 -116 25 -84 108 8 21 16 26 44 26 25 0 38 -6 46 -19z M852 574 c3 -113 4 -116 31 -140 33 -28 60 -30 102 -8 19 10 31 11
    33 5 2 -6 24 -11 48 -11 l44 0 0 135 0 135 -45 0 -45 0 0 -95 c0 -94 0 -96
    -26 -105 -45 -17 -54 0 -54 106 l0 94 -46 0 -46 0 4 -116z M1530 555 l0 -135 45 0 45 0 0 135 0 135 -45 0 -45 0 0 -135z M3652 574 c3 -113 4 -116 31 -140 33 -28 60 -30 102 -8 19 10 31 11
    33 5 2 -6 24 -11 48 -11 l44 0 0 135 0 135 -45 0 -45 0 0 -95 c0 -94 0 -96
    -26 -105 -45 -17 -54 0 -54 106 l0 94 -46 0 -46 0 4 -116z"/>
    </g>
</svg>